<?xml version="1.0" encoding="utf-8"?>
<!-- Generator: Adobe Illustrator 26.0.0, SVG Export Plug-In . SVG Version: 6.00 Build 0)  -->
<svg version="1.1" id="Layer_1" xmlns="http://www.w3.org/2000/svg" xmlns:xlink="http://www.w3.org/1999/xlink" x="0px" y="0px"
	 viewBox="0 0 1440.7 1814.58" style="enable-background:new 0 0 1440.7 1814.58;" xml:space="preserve">
<style type="text/css">
	.st0{fill:#2894D8;}
</style>
<g>
	<path class="st0" d="M1440.7,548.86c-50.46-15.67-90.59-5.82-130.56,24.76c10.06,4.3,18.3,6.62,25.21,11.02
		c18.39,11.71,38.25,22.2,53.72,37.11c18.78,18.11,18.71,33.12,5.87,55.68c-31.04,54.56-70.54,99.81-132.57,120.68
		c-74.82,25.17-178.03-12.14-214.7-78.18c-16.21-29.2-14.58-35.38,13.9-52.6c41.05-24.83,56.83-57.79,48.64-102.1
		c-0.98-5.29-3.07-10.37-5.25-17.56c-47.67,30.55-99.4,38.44-153.18,33.16c-24.41-2.4-49.4-6.08-72.41-14.1
		c-62.33-21.71-92.59-75.33-81.35-144.41c6.03-37.09,16.79-73.41,25.97-112.46c-30.78-1.67-59.85,7.22-87.87,18.88
		c-71.75,29.85-117.8,86.2-153.39,152.54c-41.09,76.57-63.57,159.35-80.09,244.03c-2.31,11.84-4.56,23.68-2.95,37.27
		c5.25-11.32,11.04-22.44,15.67-34.01c26.12-65.27,54.35-129.47,97.51-185.72c18.9-24.63,40.02-47.08,75.33-57.49
		c-4.04,12.01-7.45,21.19-10.24,30.56c-35.23,118.44-48.73,239.63-44.84,362.85c3.49,110.58,16.97,219.8,59.5,322.84
		c15.83,38.34,36.55,75.87,61.33,109.08c57.2,76.67,142.03,93.63,227.52,50.12c69.46-35.34,123.26-89.24,173.92-146.85
		c4.13-4.7,8.42-9.26,12.63-13.88c1.86,1.24,3.72,2.47,5.57,3.71c-15.02,30.4-29.64,61.01-45.13,91.17
		c-61.63,119.99-125.39,238.8-203.49,349.15c-40.18,56.77-81.91,112.44-140.96,151.95c-36.57,24.46-72.63,24.79-109.49,0.33
		c-58.01-38.49-99.47-92.58-139.31-147.88c-26.52-36.81-49.44-76.2-75.85-113.11c-23-32.14-24.54-69.74-29.2-105.91
		c-12.46-96.88-10.79-193.55,13.5-288.95c4.58-17.98,8.73-32.82,31.32-40.09c31.19-10.04,42.73-50.18,28.47-81.77
		c-13.12-29.07-48.97-44.32-77.56-33.01c-34.53,13.66-54.07,49.03-38.21,79.23c12.03,22.91,8.43,42.3,2.65,64.24
		c-20.77,78.83-26.79,159.13-24.73,241.53c-20.68-40.04-42.28-79.65-61.84-120.23c-34.34-71.23-67.77-142.9-100.6-214.83
		c-3.76-8.24-3.97-20.12-1.31-28.95c25.73-85.59,64.98-164.92,114.57-239.09c4.35-6.51,14.77-11.87,22.8-12.53
		c38.24-3.14,65.9-33.85,61.68-70.62c-4.15-36.17-37.1-62.2-70.85-55.99c-39.71,7.31-61.35,40.21-52.39,78.67
		c1.42,6.08,2.24,14.53-0.82,19.09c-44.95,66.99-82.43,137.83-112.3,216.85c-4.1-7.36-7.05-11.47-8.84-16.03
		c-35.08-89.62-69.8-179.38-105.22-268.85c-5.55-14.03-4.56-23.84,7.48-34.01c60.39-51,119.96-102.98,180.74-153.5
		c6.8-5.65,20.1-7.46,29.29-5.6c38.78,7.84,72.42-12.06,79.81-49.28c6.82-34.3-17.74-69.38-51.93-74.2
		c-38.28-5.39-69.39,20.33-74.16,60c-0.84,6.99-5.34,15.12-10.71,19.74C151.52,472.33,91.54,522.77,31.65,573.32
		c-1.49,1.26-3.45,1.96-10.13,5.65c-8.02-43.5-20.39-84.8-21.5-126.4c-0.66-24.54,12.49-52.12,26.4-73.88
		c45.55-71.3,110.35-124.1,178.22-172.83C322.87,120.98,450.39,55.25,591.96,17.61C700.65-11.28,806.81-3.03,912.62,30.74
		c81.66,26.07,158.59,62.28,232.96,104.45c41.88,23.75,62.04,60.81,67.78,107.18c2.45,19.79,5.02,39.56,7.21,59.37
		c2.35,21.25,13.23,36.35,30.25,49.2c66.86,50.45,124.98,109.82,175.8,176.34C1430.68,532.61,1433.98,538.51,1440.7,548.86z
		 M801.86,161.73c-18.42-54.74-77.03-85.97-143.8-76.9c-67.57,9.18-132.96,70.62-135.44,126.01c19.08-8.61,38.82-17.51,58.55-26.42
		c1.13,2.13,2.26,4.25,3.39,6.38c-14.22,17.25-29.5,33.74-42.36,51.94c-13.44,19.02-25.98,38.97-36.27,59.82
		c-9.98,20.22-17.9,41.72-24.32,63.36c-6.33,21.35-9.63,43.59-14.27,65.44c1.85,0.46,3.69,0.92,5.54,1.38
		c52.98-94.33,123.15-169.91,228.48-212.96c-16.6-5.7-33.21-11.41-49.81-17.11c-0.69-2.03-1.39-4.05-2.08-6.08
		c19.95-9.7,39.9-19.4,64-31.11c-18.25-13.06-34.55-24.74-50.56-36.2c31.22-15.56,74.27-5.35,104.2,27.45
		C778.73,169.47,788.58,171.73,801.86,161.73z M979.49,265.14c-0.95,7.95-1.71,12.58-2.03,17.23
		c-4.95,71.84,19.25,88.19,71.79,94.33c24.9,2.91,51.37,6.5,73.19,17.55c20.79,10.53,36.45,31.17,53.69,46.76
		c6.64-26.78-1.34-53.57-22.1-75.69C1106.47,314.64,1041.57,294.32,979.49,265.14z"/>
	<path class="st0" d="M1315.67,808.06c12.63,80.14-17.31,141.81-67.58,199.21c-26.16-24.25-53.45-44.2-88.81-45.98
		c-19.8-1-39.77,1.95-59.65,1.8c-10.52-0.08-21.02-2.97-34.09-4.99c12.13-42.11,31.83-75.19,66.57-96.39
		c9.87-6.02,25.25-3.13,38.11-4.13C1241.51,852.01,1241.51,852.03,1315.67,808.06z"/>
</g>
</svg>
